<svg width="16" height="16" viewBox="0 0 16 16" fill="none" xmlns="http://www.w3.org/2000/svg">
<path d="M1.33333 1.33301H2.49333C3.21333 1.33301 3.78 1.95301 3.72 2.66634L3.16667 9.30634C3.14506 9.56358 3.17712 9.82251 3.26082 10.0667C3.34452 10.3109 3.47803 10.5351 3.65289 10.725C3.82775 10.9149 4.04015 11.0664 4.27663 11.1699C4.51311 11.2734 4.76852 11.3267 5.02667 11.3263H12.1267C13.0867 11.3263 13.9267 10.5397 14 9.58634L14.36 4.58634C14.44 3.47967 13.6 2.57967 12.4867 2.57967H3.88M6 5.33301H14M10.8333 14.6663C11.0543 14.6663 11.2663 14.5785 11.4226 14.4223C11.5789 14.266 11.6667 14.054 11.6667 13.833C11.6667 13.612 11.5789 13.4 11.4226 13.2438C11.2663 13.0875 11.0543 12.9997 10.8333 12.9997C10.6123 12.9997 10.4004 13.0875 10.2441 13.2438C10.0878 13.4 10 13.612 10 13.833C10 14.054 10.0878 14.266 10.2441 14.4223C10.4004 14.5785 10.6123 14.6663 10.8333 14.6663ZM5.5 14.6663C5.72101 14.6663 5.93297 14.5785 6.08925 14.4223C6.24553 14.266 6.33333 14.054 6.33333 13.833C6.33333 13.612 6.24553 13.4 6.08925 13.2438C5.93297 13.0875 5.72101 12.9997 5.5 12.9997C5.27899 12.9997 5.06702 13.0875 4.91074 13.2438C4.75446 13.4 4.66667 13.612 4.66667 13.833C4.66667 14.054 4.75446 14.266 4.91074 14.4223C5.06702 14.5785 5.27899 14.6663 5.5 14.6663Z" stroke="#20538C" stroke-miterlimit="10" stroke-linecap="round" stroke-linejoin="round"/>
</svg>
