<svg xmlns="http://www.w3.org/2000/svg" width="24" height="24" viewBox="0 0 24 24">
  <g id="Group_1" data-name="Group 1" transform="translate(-548 -794)">
    <rect id="Rectangle_211" data-name="Rectangle 211" width="24" height="24" transform="translate(548 794)" fill="none"/>
    <g id="category-1-svgrepo-com" transform="translate(549 795)">
      <path id="Path_933" data-name="Path 933" d="M6.05,3.414a12.577,12.577,0,0,0-2.169.278.181.181,0,0,0-.144.153,23.205,23.205,0,0,0-.308,3.1,23.2,23.2,0,0,0,.308,3.1.181.181,0,0,0,.144.154,12.581,12.581,0,0,0,2.169.278,12.581,12.581,0,0,0,2.169-.278.181.181,0,0,0,.144-.154,23.2,23.2,0,0,0,.308-3.1,23.206,23.206,0,0,0-.308-3.1.181.181,0,0,0-.144-.153A12.577,12.577,0,0,0,6.05,3.414ZM3.6,2.307A13.891,13.891,0,0,1,6.05,2,13.891,13.891,0,0,1,8.5,2.307,1.6,1.6,0,0,1,9.775,3.63,24.461,24.461,0,0,1,10.1,6.95a24.462,24.462,0,0,1-.325,3.32A1.6,1.6,0,0,1,8.5,11.593,13.889,13.889,0,0,1,6.05,11.9,13.889,13.889,0,0,1,3.6,11.593,1.6,1.6,0,0,1,2.325,10.27,24.471,24.471,0,0,1,2,6.95a24.47,24.47,0,0,1,.325-3.32A1.6,1.6,0,0,1,3.6,2.307Z" fill="#252525" fill-rule="evenodd"/>
      <path id="Path_934" data-name="Path 934" d="M17.05,19.486a12.582,12.582,0,0,1-2.169-.278.181.181,0,0,1-.144-.154,23.2,23.2,0,0,1-.308-3.1,23.2,23.2,0,0,1,.308-3.1.181.181,0,0,1,.144-.154,12.582,12.582,0,0,1,2.169-.278,12.582,12.582,0,0,1,2.169.278.181.181,0,0,1,.144.154,23.2,23.2,0,0,1,.308,3.1,23.2,23.2,0,0,1-.308,3.1.181.181,0,0,1-.144.154A12.582,12.582,0,0,1,17.05,19.486ZM14.6,20.593a13.889,13.889,0,0,0,2.454.307,13.889,13.889,0,0,0,2.454-.307,1.6,1.6,0,0,0,1.271-1.323,24.462,24.462,0,0,0,.325-3.32,24.462,24.462,0,0,0-.325-3.32A1.6,1.6,0,0,0,19.5,11.307,13.889,13.889,0,0,0,17.05,11a13.889,13.889,0,0,0-2.454.307,1.6,1.6,0,0,0-1.271,1.323A24.462,24.462,0,0,0,13,15.95a24.462,24.462,0,0,0,.325,3.32A1.6,1.6,0,0,0,14.6,20.593Z" transform="translate(-1.1 -0.9)" fill="#252525" fill-rule="evenodd"/>
      <path id="Path_935" data-name="Path 935" d="M6.05,16.454a13.609,13.609,0,0,0-2.265.283.151.151,0,0,0-.122.106,5.635,5.635,0,0,0-.234,1.308,5.635,5.635,0,0,0,.234,1.308.151.151,0,0,0,.122.106,13.609,13.609,0,0,0,2.265.283,13.609,13.609,0,0,0,2.265-.283.151.151,0,0,0,.122-.106,5.635,5.635,0,0,0,.234-1.308,5.635,5.635,0,0,0-.234-1.308.151.151,0,0,0-.122-.106A13.609,13.609,0,0,0,6.05,16.454ZM3.515,15.309A14.876,14.876,0,0,1,6.05,15a14.876,14.876,0,0,1,2.535.309,1.589,1.589,0,0,1,1.227,1.138,6.982,6.982,0,0,1,.287,1.7,6.982,6.982,0,0,1-.287,1.7,1.589,1.589,0,0,1-1.227,1.138A14.876,14.876,0,0,1,6.05,21.3a14.876,14.876,0,0,1-2.535-.309,1.589,1.589,0,0,1-1.227-1.138A6.983,6.983,0,0,1,2,18.15a6.983,6.983,0,0,1,.287-1.7A1.589,1.589,0,0,1,3.515,15.309Z" transform="translate(0 -1.3)" fill="#252525" fill-rule="evenodd"/>
      <path id="Path_936" data-name="Path 936" d="M17.05,6.846a13.6,13.6,0,0,1-2.265-.283.151.151,0,0,1-.122-.106,5.64,5.64,0,0,1-.234-1.308,5.64,5.64,0,0,1,.234-1.308.151.151,0,0,1,.122-.106,13.6,13.6,0,0,1,2.265-.283,13.6,13.6,0,0,1,2.265.283.151.151,0,0,1,.122.106,5.64,5.64,0,0,1,.234,1.308,5.64,5.64,0,0,1-.234,1.308.151.151,0,0,1-.122.106A13.6,13.6,0,0,1,17.05,6.846ZM14.515,7.991A14.879,14.879,0,0,0,17.05,8.3a14.879,14.879,0,0,0,2.535-.309,1.589,1.589,0,0,0,1.227-1.138,6.983,6.983,0,0,0,.287-1.7,6.983,6.983,0,0,0-.287-1.7,1.589,1.589,0,0,0-1.227-1.138A14.879,14.879,0,0,0,17.05,2a14.879,14.879,0,0,0-2.535.309,1.589,1.589,0,0,0-1.227,1.138A6.983,6.983,0,0,0,13,5.15a6.983,6.983,0,0,0,.287,1.7A1.589,1.589,0,0,0,14.515,7.991Z" transform="translate(-1.1)" fill="#252525" fill-rule="evenodd"/>
    </g>
  </g>
</svg>
