<svg width="32" height="32" viewBox="0 0 32 32" fill="none" xmlns="http://www.w3.org/2000/svg">
<path d="M11.3327 25.3337H10.666C5.33268 25.3337 2.66602 24.0003 2.66602 17.3337V10.667C2.66602 5.33366 5.33268 2.66699 10.666 2.66699H21.3327C26.666 2.66699 29.3327 5.33366 29.3327 10.667V17.3337C29.3327 22.667 26.666 25.3337 21.3327 25.3337H20.666C20.2527 25.3337 19.8527 25.5337 19.5993 25.867L17.5993 28.5337C16.7193 29.707 15.2793 29.707 14.3993 28.5337L12.3993 25.867C12.186 25.5737 11.6927 25.3337 11.3327 25.3337Z" stroke="#20538C" stroke-width="1.5" stroke-miterlimit="10" stroke-linecap="round" stroke-linejoin="round"/>
<path d="M21.328 14.667H21.3413M15.9933 14.667H16.0067M10.66 14.667H10.6707" stroke="#20538C" stroke-width="2" stroke-linecap="round" stroke-linejoin="round"/>
</svg>
