<svg xmlns="http://www.w3.org/2000/svg" width="24" height="24" viewBox="0 0 24 24">
  <g id="Group_1" data-name="Group 1" transform="translate(-548 -794)">
    <rect id="Rectangle_211" data-name="Rectangle 211" width="24" height="24" transform="translate(548 794)" fill="none"/>
    <g id="home-svgrepo-com" transform="translate(547 793.771)">
      <path id="Path_930" data-name="Path 930" d="M19.539,7.872a4.519,4.519,0,0,1,1.27,1.276A3.864,3.864,0,0,1,21,10.841v6.336c0,1.91,0,2.865-.669,3.458s-1.747.593-3.9.593H9.571c-2.155,0-3.232,0-3.9-.593S5,19.088,5,17.178V10.841a3.863,3.863,0,0,1,.191-1.693,4.519,4.519,0,0,1,1.27-1.276L9,5.783l.889-.732C11.365,3.836,12.1,3.229,13,3.229s1.635.607,3.111,1.821L17,5.783Z" transform="translate(0 0)" fill="#fff" stroke="#252525" stroke-linejoin="round" stroke-width="1"/>
      <path id="Path_931" data-name="Path 931" d="M10,21.077V17.026A2.168,2.168,0,0,1,12.286,15h0a2.168,2.168,0,0,1,2.286,2.026v4.052" transform="translate(0.714 0.152)" fill="#fff" stroke="#252525" stroke-linecap="round" stroke-linejoin="round" stroke-width="1"/>
    </g>
  </g>
</svg>
