<svg width="32" height="32" viewBox="0 0 32 32" fill="none" xmlns="http://www.w3.org/2000/svg">
<path opacity="0.8" d="M18.3067 4.67953L20.6533 9.37287C20.9733 10.0262 21.8267 10.6529 22.5467 10.7729L26.8 11.4795C29.52 11.9329 30.16 13.9062 28.2 15.8529L24.8933 19.1595C24.3333 19.7195 24.0267 20.7995 24.2 21.5729L25.1467 25.6662C25.8933 28.9062 24.1733 30.1595 21.3067 28.4662L17.32 26.1062C16.6 25.6795 15.4133 25.6795 14.68 26.1062L10.6933 28.4662C7.84 30.1595 6.10667 28.8929 6.85333 25.6662L7.8 21.5729C7.97333 20.7995 7.66667 19.7195 7.10667 19.1595L3.8 15.8529C1.85333 13.9062 2.48 11.9329 5.2 11.4795L9.45333 10.7729C10.16 10.6529 11.0133 10.0262 11.3333 9.37287L13.68 4.67953C14.96 2.13286 17.04 2.13286 18.3067 4.67953Z" stroke="#252525" stroke-width="2" stroke-linecap="round" stroke-linejoin="round"/>
</svg>
