<svg width="32" height="32" viewBox="0 0 32 32" fill="none" xmlns="http://www.w3.org/2000/svg">
<path d="M16 20C17.0609 20 18.0783 19.5786 18.8284 18.8284C19.5786 18.0783 20 17.0609 20 16C20 14.9391 19.5786 13.9217 18.8284 13.1716C18.0783 12.4214 17.0609 12 16 12C14.9391 12 13.9217 12.4214 13.1716 13.1716C12.4214 13.9217 12 14.9391 12 16C12 17.0609 12.4214 18.0783 13.1716 18.8284C13.9217 19.5786 14.9391 20 16 20Z" stroke="#20538C" stroke-width="2" stroke-miterlimit="10" stroke-linecap="round" stroke-linejoin="round"/>
<path d="M2.66667 17.1736V14.8269C2.66667 13.4402 3.8 12.2936 5.2 12.2936C7.61333 12.2936 8.6 10.5869 7.38667 8.49357C6.69333 7.29357 7.10667 5.73357 8.32 5.04024L10.6267 3.72024C11.68 3.09357 13.04 3.46691 13.6667 4.52024L13.8133 4.77357C15.0133 6.86691 16.9867 6.86691 18.2 4.77357L18.3467 4.52024C18.9733 3.46691 20.3333 3.09357 21.3867 3.72024L23.6933 5.04024C24.9067 5.73357 25.32 7.29357 24.6267 8.49357C23.4133 10.5869 24.4 12.2936 26.8133 12.2936C28.2 12.2936 29.3467 13.4269 29.3467 14.8269V17.1736C29.3467 18.5602 28.2133 19.7069 26.8133 19.7069C24.4 19.7069 23.4133 21.4136 24.6267 23.5069C25.32 24.7202 24.9067 26.2669 23.6933 26.9602L21.3867 28.2802C20.3333 28.9069 18.9733 28.5336 18.3467 27.4802L18.2 27.2269C17 25.1336 15.0267 25.1336 13.8133 27.2269L13.6667 27.4802C13.04 28.5336 11.68 28.9069 10.6267 28.2802L8.32 26.9602C7.7388 26.6256 7.31411 26.074 7.13913 25.4266C6.96415 24.7792 7.05317 24.0888 7.38667 23.5069C8.6 21.4136 7.61333 19.7069 5.2 19.7069C3.8 19.7069 2.66667 18.5602 2.66667 17.1736Z" stroke="#20538C" stroke-width="2" stroke-miterlimit="10" stroke-linecap="round" stroke-linejoin="round"/>
</svg>
