<svg xmlns="http://www.w3.org/2000/svg" width="24" height="24" viewBox="0 0 24 24">
  <g id="Group_5" data-name="Group 5" transform="translate(-562 -758)">
    <rect id="Rectangle_216" data-name="Rectangle 216" width="24" height="24" transform="translate(562 758)" fill="none"/>
    <g id="Shop" transform="translate(561.895 757.94)">
      <path id="Path_932" data-name="Path 932" d="M20.8,5.275A2.537,2.537,0,0,0,18.293,3.06H5.917a2.537,2.537,0,0,0-2.509,2.2l-.3,2.487a3.427,3.427,0,0,0,1.173,2.577v8.215A2.523,2.523,0,0,0,6.807,21.06H17.4a2.523,2.523,0,0,0,2.529-2.517V10.328A3.427,3.427,0,0,0,21.1,7.751ZM14.136,20.053H10.09V15.946a1.514,1.514,0,0,1,1.517-1.51h1.012a1.514,1.514,0,0,1,1.517,1.51Zm4.784-1.51a1.514,1.514,0,0,1-1.517,1.51H15.147V15.946a2.523,2.523,0,0,0-2.529-2.517H11.607a2.523,2.523,0,0,0-2.529,2.517v4.107H6.807a1.514,1.514,0,0,1-1.517-1.51V10.922a3.274,3.274,0,0,0,1.254.242,3.4,3.4,0,0,0,2.61-1.2.245.245,0,0,1,.344,0,3.4,3.4,0,0,0,2.61,1.2,3.439,3.439,0,0,0,2.625-1.2.222.222,0,0,1,.162-.07.241.241,0,0,1,.172.07,3.4,3.4,0,0,0,2.61,1.2,3.223,3.223,0,0,0,1.244-.242Zm-1.244-8.386a2.418,2.418,0,0,1-1.841-.836,1.216,1.216,0,0,0-.931-.433h-.01a1.21,1.21,0,0,0-.931.423,2.513,2.513,0,0,1-3.692,0,1.258,1.258,0,0,0-1.881,0,2.435,2.435,0,0,1-4.279-1.5l.3-2.416A1.532,1.532,0,0,1,5.922,4.067H18.293A1.515,1.515,0,0,1,19.8,5.4l.293,2.376a2.414,2.414,0,0,1-2.423,2.386Z" transform="translate(0)"/>
    </g>
  </g>
</svg>
