<svg width="32" height="32" viewBox="0 0 32 32" fill="none" xmlns="http://www.w3.org/2000/svg">
<path d="M27.4533 29.3337C27.4533 24.1737 22.32 20.0003 16 20.0003C9.68 20.0003 4.54667 24.1737 4.54667 29.3337M16 16.0003C17.7681 16.0003 19.4638 15.2979 20.714 14.0477C21.9643 12.7975 22.6667 11.1018 22.6667 9.33366C22.6667 7.56555 21.9643 5.86986 20.714 4.61961C19.4638 3.36937 17.7681 2.66699 16 2.66699C14.2319 2.66699 12.5362 3.36937 11.286 4.61961C10.0357 5.86986 9.33333 7.56555 9.33333 9.33366C9.33333 11.1018 10.0357 12.7975 11.286 14.0477C12.5362 15.2979 14.2319 16.0003 16 16.0003Z" stroke="#20538C" stroke-width="2" stroke-linecap="round" stroke-linejoin="round"/>
</svg>
