<svg width="32" height="32" viewBox="0 0 32 32" fill="none" xmlns="http://www.w3.org/2000/svg">
<path d="M16.88 3.35686L16.84 3.4502L12.9733 12.4235H9.17333C8.26667 12.4235 7.4 12.6102 6.61333 12.9435L8.94667 7.3702L9 7.23686L9.09333 7.02353C9.12 6.94353 9.14667 6.86353 9.18667 6.79686C10.9333 2.75686 12.9067 1.83686 16.88 3.35686Z" stroke="#20538C" stroke-width="2" stroke-linecap="round" stroke-linejoin="round"/>
<path d="M24.0667 12.6908C23.4667 12.5041 22.8267 12.4241 22.1867 12.4241H12.9733L16.84 3.45076L16.88 3.35742C17.08 3.42409 17.2667 3.51742 17.4667 3.59742L20.4133 4.83742C22.0533 5.51742 23.2 6.22409 23.8933 7.07742C24.0267 7.23742 24.1333 7.38409 24.2267 7.55742C24.3467 7.74409 24.44 7.93076 24.4933 8.13076C24.5467 8.25076 24.5867 8.37075 24.6133 8.47742C24.9733 9.59742 24.76 10.9708 24.0667 12.6908Z" stroke="#20538C" stroke-width="2" stroke-linecap="round" stroke-linejoin="round"/>
<path d="M28.696 18.9305V21.5305C28.696 21.7972 28.6827 22.0638 28.6693 22.3305C28.416 26.9838 25.816 29.3305 20.8827 29.3305H10.4827C10.1627 29.3305 9.84266 29.3038 9.536 29.2638C5.296 28.9838 3.02933 26.7172 2.74933 22.4772C2.70933 22.1705 2.68266 21.8505 2.68266 21.5305V18.9305C2.68266 16.2505 4.30933 13.9438 6.62933 12.9438C7.42933 12.6105 8.28266 12.4238 9.18933 12.4238H22.2027C22.856 12.4238 23.496 12.5172 24.0827 12.6905C26.736 13.5038 28.696 15.9838 28.696 18.9305Z" stroke="#20538C" stroke-width="2" stroke-linecap="round" stroke-linejoin="round"/>
<path d="M8.94666 7.37109L6.61333 12.9444C5.44281 13.448 4.44533 14.2832 3.74399 15.3471C3.04265 16.4109 2.66814 17.6569 2.66666 18.9311V15.0244C2.66666 11.2378 5.36 8.07776 8.94666 7.37109ZM28.692 15.0244V18.9311C28.692 15.9978 26.7453 13.5044 24.0787 12.7044C24.772 10.9711 24.972 9.61109 24.6387 8.47776C24.612 8.35776 24.572 8.23776 24.5187 8.13109C26.9987 9.41109 28.692 12.0378 28.692 15.0244Z" stroke="#20538C" stroke-width="2" stroke-linecap="round" stroke-linejoin="round"/>
</svg>
